<svg width="27" height="17" viewBox="0 0 27 17" fill="none" xmlns="http://www.w3.org/2000/svg">
<path d="M19.0999 9.01011C19.7561 8.96761 20.4143 9.05941 21.0299 9.27921C21.6454 9.49891 22.2039 9.84161 22.6674 10.2839C23.1309 10.7262 23.4887 11.2578 23.7164 11.8426C23.9441 12.4275 24.0364 13.0519 23.9871 13.6735V15H18V9.01011H19.0999Z" fill="#DD4242" stroke="#DD4242" stroke-width="0.4"/>
<path d="M7.13341 9.31475H7.23363H10.2687C10.4996 9.30727 10.7297 9.34521 10.9445 9.4263L10.9445 9.4263C11.1597 9.50759 11.355 9.63053 11.5175 9.78757M7.13341 9.31475L11.7948 10.3755L11.8878 10.3388C11.8064 10.1323 11.6801 9.94461 11.5175 9.78757M7.13341 9.31475L7.13363 9.41498M7.13341 9.31475L7.13363 9.41498M11.5175 9.78757L11.4485 9.85901L11.5175 9.78756C11.5175 9.78756 11.5175 9.78757 11.5175 9.78757ZM7.13363 9.41498L7.13526 10.1252L7.13363 9.41498ZM4.40824 14.9317L4.44239 14.8427L4.40824 14.9317C4.72342 15.0527 5.062 15.1096 5.40184 15.0987H5.87036H5.97036V14.9987V7.65337C5.97036 6.67926 6.41148 5.94916 7.07463 5.45958C7.7406 4.96791 8.6329 4.71781 9.52745 4.71781C10.422 4.71781 11.3143 4.96791 11.9803 5.45958C12.6434 5.94916 13.0845 6.67926 13.0845 7.65337V12.6329C13.0573 12.9537 13.1023 13.2762 13.2162 13.5794L13.2162 13.5794C13.3306 13.8838 13.5119 14.1616 13.748 14.3946L13.748 14.3946C13.9841 14.6275 14.2694 14.8105 14.5851 14.9317C14.9003 15.0527 15.2388 15.1096 15.5787 15.0987H16H16.1V14.9987V7.65337C16.1 5.73175 15.2722 4.2897 14.0316 3.33059C12.7938 2.37361 11.149 1.9 9.51172 1.9C7.87444 1.9 6.2258 2.3736 4.98406 3.3305C3.73956 4.28952 2.90771 5.73157 2.90771 7.65337V12.6329C2.88052 12.9537 2.92541 13.2762 3.03933 13.5794L3.03934 13.5794C3.15377 13.8838 3.33516 14.1616 3.57119 14.3946L3.5712 14.3946C3.80722 14.6275 4.09254 14.8105 4.40824 14.9317Z" fill="black" stroke="black" stroke-width="0.2"/>
</svg>
