<svg xmlns="http://www.w3.org/2000/svg" width="119.053" height="26.503" viewBox="0 0 119.053 26.503">
  <defs>
    <style>
      .cls-1 {
        fill: #fff;
      }

      .cls-2 {
        fill: #fb4d3d;
      }
    </style>
  </defs>
  <g id="logo" transform="translate(0.015)">
    <path id="Path_1" data-name="Path 1" class="cls-1" d="M4.412,25.643A4.278,4.278,0,0,1,0,21.019V11.26C0,3.861,6.021.19,11.994.19S23.959,3.861,23.959,11.26V25.643h-.78a4.278,4.278,0,0,1-4.412-4.624V11.26c0-3.95-3.382-5.944-6.744-5.944S5.279,7.31,5.279,11.26V25.643ZM7.793,14.709h5.6a2.89,2.89,0,0,1,2.987,3.064V19.16h-5.52a2.89,2.89,0,0,1-3.064-3.054Z" transform="translate(0 -0.007)"/>
    <path id="Path_2" data-name="Path 2" class="cls-1" d="M29.79,21.754H42.314c2.813,0,4.952-.819,4.952-2.669,0-2.168-2.89-2.813-6.378-3.526-4.817-1.031-10.713-2.312-10.713-8.083C30.185,2.206,35.06,0,40.4,0H51.37V4.74h-10.6c-2.746,0-4.817.848-4.817,2.89s2.89,2.63,6.262,3.314c4.817.963,10.867,2.129,10.867,8.006,0,5.376-5.347,7.553-11.253,7.553H34.125a4.135,4.135,0,0,1-4.278-4.489Z" transform="translate(-1.091)"/>
    <path id="Path_3" data-name="Path 3" class="cls-2" d="M63.119,6.222A3.979,3.979,0,0,1,58.88,1.954V.74h5.193V6.222Z" transform="translate(-2.155 -0.027)"/>
    <path id="Path_4" data-name="Path 4" class="cls-1" d="M63.118,25.951a4.114,4.114,0,0,1-4.239-4.441V8.61h5.193V25.951Z" transform="translate(-2.155 -0.315)"/>
    <path id="Path_5" data-name="Path 5" class="cls-1" d="M67.858.74h25.81V5.152H71.509A3.594,3.594,0,0,1,67.81,1.3Zm9.971,7.081h5.193V25.663h-1.06a4.008,4.008,0,0,1-4.133-4.345Z" transform="translate(-2.481 -0.027)"/>
    <path id="Path_6" data-name="Path 6" class="cls-1" d="M96.87.74h6.021l5.376,8.333-.674.963a2.341,2.341,0,0,1-4.278,0Zm10.26,14.451L116.562.74h6.021l-10.26,14.885V25.663h-.963c-2.534,0-4.239-1.782-4.239-4.489Z" transform="translate(-3.545 -0.027)"/>
  </g>
</svg>
